# xmcd
# 
# Track frame offsets:
#     150
#     15442
#     31915
#     56387
#     70221
#     95279
#     116849
#     137565
#     159950
#     172145
#     186961
#     202695
# 
# Disc length: 2739
# 
# Revision: 1
# Processed by: cddbd v1.5.2PL0 Copyright (c) Steve Scherf et al.
# Submitted via: fre:ac v1.1beta1pre5
# 
DISCID=950ab10c
DTITLE=The Jelly Jam - 2
DYEAR=2004
DGENRE=Hardrock
TTITLE0=Not Today
TTITLE1=Coming Round
TTITLE2=Empty
TTITLE3=Drop the Gun
TTITLE4=Allison
TTITLE5=Maybe
TTITLE6=She Was Alone
TTITLE7=Angel or Devil
TTITLE8=You Don't Need Me Anyway
TTITLE9=Runaway
TTITLE10=War is...
TTITLE11=Message
EXTD=
EXTT0=
EXTT1=
EXTT2=
EXTT3=
EXTT4=
EXTT5=
EXTT6=
EXTT7=
EXTT8=
EXTT9=
EXTT10=
EXTT11=
PLAYORDER=
